<svg width="24" height="24" fill="none" xmlns="http://www.w3.org/2000/svg"><g clip-path="url(#a)"><path d="M11.995 0C5.361 0 0 5.37 0 11.995c0 5.084 3.16 9.428 7.622 11.176-.109-.948-.198-2.41.039-3.446.217-.938 1.402-5.963 1.402-5.963s-.355-.72-.355-1.777c0-1.668.967-2.912 2.171-2.912 1.027 0 1.52.77 1.52 1.688 0 1.027-.65 2.567-.996 3.998-.287 1.195.602 2.172 1.777 2.172 2.132 0 3.771-2.25 3.771-5.489 0-2.873-2.063-4.877-5.015-4.877-3.416 0-5.42 2.557-5.42 5.203 0 1.027.395 2.132.888 2.735a.357.357 0 0 1 .08.345c-.09.375-.297 1.195-.336 1.363-.05.217-.178.266-.405.158-1.481-.711-2.409-2.903-2.409-4.66 0-3.781 2.745-7.257 7.928-7.257 4.156 0 7.394 2.962 7.394 6.931 0 4.137-2.606 7.464-6.22 7.464-1.214 0-2.36-.632-2.744-1.383l-.75 2.854c-.267 1.046-.998 2.35-1.491 3.149a12.05 12.05 0 0 0 3.554.533C18.629 24 24 18.63 24 12.005 23.99 5.37 18.62 0 11.995 0Z" fill="#fff"/></g><defs><clipPath id="a"><path fill="#fff" d="M0 0h24v24H0z"/></clipPath></defs></svg>