<svg width="22" height="18" fill="none" xmlns="http://www.w3.org/2000/svg"><g filter="url(#a)"><g clip-path="url(#b)"><mask id="c" style="mask-type:alpha" maskUnits="userSpaceOnUse" x="3" y="1" width="16" height="12"><path fill="#fff" d="M3 1h16v12H3z"/></mask><g mask="url(#c)"><path fill-rule="evenodd" clip-rule="evenodd" d="M3 1h16v12H3V1Z" fill="#F7FCFF"/><path fill="#E31D1C" d="M3.014 3.75h16v1.5h-16z"/><path fill-rule="evenodd" clip-rule="evenodd" d="M3 1h16v1.5H3V1Z" fill="#E31D1C"/><path fill="#E31D1C" d="M2.971 6.5h16V8h-16zm.085 2.7h16v1.5h-16zm-.005 2.55h16v1.5h-16z"/><path fill-rule="evenodd" clip-rule="evenodd" d="M3 1h8v7H3V1Z" fill="#3D58DB"/><path fill-rule="evenodd" clip-rule="evenodd" d="M7.066 5.607 5.606 6.62l.466-1.736L5 3.776l1.452-.06L7.066 2l.615 1.716H9.13L8.06 4.884l.536 1.633-1.53-.91Z" fill="#F7FCFF"/></g><path fill="url(#d)" style="mix-blend-mode:overlay" d="M3 1h16v12H3z"/></g><rect x="3.5" y="1.5" width="15" height="11" rx=".5" stroke="#000" stroke-opacity=".1" style="mix-blend-mode:multiply"/></g><defs><linearGradient id="d" x1="11" y1="1" x2="11" y2="13" gradientUnits="userSpaceOnUse"><stop stop-color="#fff" stop-opacity=".7"/><stop offset="1" stop-opacity=".3"/></linearGradient><clipPath id="b"><rect x="3" y="1" width="16" height="12" rx="1" fill="#fff"/></clipPath><filter id="a" x="0" y="0" width="22" height="18" filterUnits="userSpaceOnUse" color-interpolation-filters="sRGB"><feFlood flood-opacity="0" result="BackgroundImageFix"/><feColorMatrix in="SourceAlpha" values="0 0 0 0 0 0 0 0 0 0 0 0 0 0 0 0 0 0 127 0" result="hardAlpha"/><feOffset dy="2"/><feGaussianBlur stdDeviation="1.5"/><feColorMatrix values="0 0 0 0 0 0 0 0 0 0 0 0 0 0 0 0 0 0 0.1 0"/><feBlend in2="BackgroundImageFix" result="effect1_dropShadow_331_356"/><feBlend in="SourceGraphic" in2="effect1_dropShadow_331_356" result="shape"/></filter></defs></svg>