<svg width="120" height="31" fill="none" xmlns="http://www.w3.org/2000/svg"><path d="M30.643 12.182a9.587 9.587 0 0 1-9.193 6.977 9.08 9.08 0 0 0 2.015-5.71c0-5.054-4.088-9.141-9.117-9.141-.32 0-.641.017-.96.051a9.6 9.6 0 0 1 5.43-4.002A15.434 15.434 0 0 0 15.5 0C6.94 0 0 6.94 0 15.502 0 24.063 6.941 31 15.5 31 24.06 31 31 24.06 31 15.5a15.466 15.466 0 0 0-.357-3.318ZM14.348 5.1c3.914 0 7.062 3.74 7.062 8.35 0 2.127-.67 4.068-1.777 5.543-4.436-.838-7.791-4.733-7.791-9.412a9.543 9.543 0 0 1 1.013-4.294c.488-.124.99-.187 1.493-.187Zm14.484 16.03A14.478 14.478 0 1 1 15.134 1.036a10.716 10.716 0 0 0-3.072 3.56 9.137 9.137 0 0 0-6.855 8.855c0 3.914 2.478 7.259 5.97 8.547-1.436.47-2.377 1.635-2.675 3.295h.322c.124-.545 1.09-2.578 3.443-2.578.29 0 .58.025.867.072 2.28.446 5.054 3.567 7.78 3.866 2.452.273 4.458-.942 4.88-3.394h-.372c-.297.817-1.14 1.784-2.75 1.784-.421 0-.916-.075-1.486-.248-2.007-.595-3.568-1.66-5.326-2.354a9.076 9.076 0 0 0 4.662-2.29c.296.025.596.04.899.04 3.43 0 6.581-1.672 8.544-4.325a14.35 14.35 0 0 1-1.132 5.265v-.001Z" fill="#CAAF9A"/><path d="M39.861 24.066c.262-1.451 1.087-2.476 2.344-2.889a7.99 7.99 0 1 1 4.105.391c1.542.608 2.91 1.542 4.67 2.064.42.137.86.213 1.303.223 1.411 0 2.15-.847 2.41-1.563h.326c-.37 2.15-2.128 3.215-4.278 2.975-2.39-.26-4.821-2.997-6.82-3.388a4.678 4.678 0 0 0-.76-.066c-2.064 0-2.911 1.786-3.014 2.26l-.285-.007Zm11.317-10.38c0-4.04-2.76-7.32-6.19-7.32-3.431 0-6.212 3.28-6.212 7.32 0 4.04 2.78 7.318 6.212 7.318s6.193-3.28 6.193-7.319l-.003.001Z" fill="#F2E5DA"/><path d="M59.712 7.126a7.636 7.636 0 0 0-.803-1.065h2.301l5.083 13.247c.288.74.716 1.418 1.26 1.998h-3.02a2.214 2.214 0 0 0 .112-1.786l-.542-1.39h-7.887l-.565 1.451a2.727 2.727 0 0 0-.087 1.716h-1.846a6.028 6.028 0 0 0 1.37-2.053l4.624-12.118Zm4.17 10.403-3.476-9.035c-.085-.195-.173-.413-.26-.608l-3.714 9.643h7.45Zm12.076 3.779L71.81 9.884l-.847 9.555a3.118 3.118 0 0 0 .39 1.869h-1.737a3.916 3.916 0 0 0 .737-1.954l.978-10.795-.261-.696a4.662 4.662 0 0 0-1.216-1.802h2.28l4.953 13.575 4.93-13.575h1.108a4.999 4.999 0 0 0-.326 2.259l.976 11.034c.069.705.324 1.38.74 1.954h-2.753c.322-.567.459-1.22.39-1.869l-.869-9.577-3.874 10.664.282.78-1.733.002ZM92.571 7.126a7.636 7.636 0 0 0-.803-1.065h2.301l5.083 13.247c.288.74.716 1.418 1.259 1.998h-3.014a2.216 2.216 0 0 0 .112-1.786l-.544-1.39h-7.883l-.564 1.451a2.726 2.726 0 0 0-.088 1.716h-1.846a6.028 6.028 0 0 0 1.369-2.064L92.57 7.126Zm4.17 10.403-3.476-9.035c-.087-.195-.173-.413-.26-.608l-3.714 9.643h7.45Zm15.379 3.779a2.731 2.731 0 0 0-.436-1.586l-2.629-4.209a3.208 3.208 0 0 0-2.737-1.52h-1.391v5.191c.001.738.172 1.467.5 2.128h-2.628c.329-.661.5-1.39.5-2.128V8.216a4.963 4.963 0 0 0-.5-2.15h6.429a3.956 3.956 0 0 1 3.986 3.795 3.96 3.96 0 0 1-3.66 4.11c.507.323.937.752 1.26 1.26l2.519 4.04a7.802 7.802 0 0 0 1.825 2.041l-3.038-.004Zm-3.907-7.924a3.353 3.353 0 0 0 3.156-2.058 3.347 3.347 0 0 0 0-2.596 3.35 3.35 0 0 0-3.156-2.057h-3.28v6.71h3.28Zm10.918 5.796c0 .738.172 1.466.5 2.128h-2.628c.328-.662.499-1.39.5-2.128V8.212a4.963 4.963 0 0 0-.5-2.151h2.628a4.963 4.963 0 0 0-.5 2.15V19.18Z" fill="#F2E5DA"/></svg>